<svg id="Layer_1" enable-background="new 0 0 512 512" height="512" viewBox="0 0 512 512" width="512" xmlns="http://www.w3.org/2000/svg"><g><path d="m245.002 5.499c-49.243 0-95.085 14.54-133.49 39.543l-16.62 399.088c41.468 32.195 93.546 51.373 150.11 51.373 135.311 0 245.002-109.691 245.002-245.002s-109.691-245.002-245.002-245.002z" fill="#2a428c"/><path d="m512 98.232c0-29.254-23.935-53.189-53.19-53.189h-347.298c-25.623 16.682-47.933 38.022-65.724 62.827h350.196c29.254 0 53.19 23.935 53.19 53.189v222.02h9.637c29.255 0 53.19-23.935 53.19-53.19v-231.657z" fill="#e9efff"/><path d="m45.787 107.869h121.41c.806-1.146 1.328-1.775 1.328-1.775-28.203-28.203 0-61.052 0-61.052h-57.014c-25.623 16.683-47.932 38.022-65.724 62.827z" fill="#bec8f7"/><path d="m407.106 476.154c-6.063-5.341-11.525-11.218-16.397-17.521-4.573-5.916-.429-14.503 7.049-14.503 29.254 0 53.19-23.935 53.19-53.189v-231.657c0-29.254-23.935-53.189-53.19-53.189h-350.677c-29.597 40.495-47.081 90.405-47.081 144.406 0 78.747 37.16 148.808 94.892 193.629h181.756c10.699 0 20.646 5.139 27.182 13.611 23.254 30.141 57.422 48.647 93.88 48.76 14.345.045 20.708-20.383 9.396-30.347z" fill="#ff4155"/><path d="m47.082 106.094c-29.598 40.496-47.082 90.406-47.082 144.407 0 78.747 37.16 148.808 94.892 193.629h144.3c-35.333-29.371-6.667-60.272-6.667-60.272-43.5-27.643-18.516-74.778-18.516-74.778l-26.408-76.413c-32.174-22.834-8.576-63.14-8.576-63.14-40-27.974-10.5-63.433-10.5-63.433z" fill="#e80054"/><path d="m315.083 383.858h-196.693c-30.397 0-55.039-24.642-55.039-55.04v-104.251c0-30.397 24.642-55.04 55.039-55.04h196.694c30.397 0 55.04 24.642 55.04 55.04v104.251c-.001 30.398-24.643 55.04-55.041 55.04z" fill="#e9efff"/><path d="m118.39 169.527c-30.397 0-55.039 24.642-55.039 55.04v104.251c0 30.398 24.642 55.04 55.039 55.04h114.136c-43.5-27.643-18.516-74.778-18.516-74.778l-26.408-76.413c-32.174-22.834-8.576-63.14-8.576-63.14z" fill="#bec8f7"/><path d="m260.78 270.522-66.938-37.522c-4.715-2.643-10.532.765-10.532 6.17v75.044c0 5.405 5.817 8.813 10.532 6.17l66.938-37.522c4.82-2.701 4.82-9.638 0-12.34z" fill="#e80054"/><path d="m220.387 290.478 25.973-14.559c4.731-2.652 5.313-8.948 1.75-12.499l-29.761-16.683c-4.779-1.158-9.755 2.423-9.755 7.713v29.118c-.001 6.053 6.513 9.87 11.793 6.91z" fill="#ff4155"/></g></svg>